<!DOCTYPE svg PUBLIC "-//W3C//DTD SVG 1.1//EN" "http://www.w3.org/Graphics/SVG/1.1/DTD/svg11.dtd">
<!-- Uploaded to: SVG Repo, www.svgrepo.com, Transformed by: SVG Repo Mixer Tools -->
<svg fill="#434343" version="1.1" id="Capa_1" xmlns="http://www.w3.org/2000/svg" xmlns:xlink="http://www.w3.org/1999/xlink" width="800px" height="800px" viewBox="0 0 151.048 151.049" xml:space="preserve">
<g id="SVGRepo_bgCarrier" stroke-width="0"/>
<g id="SVGRepo_tracerCarrier" stroke-linecap="round" stroke-linejoin="round"/>
<g id="SVGRepo_iconCarrier"> <g> <path d="M133.893,45.886c2.466,2.466,2.466,6.465,0,8.932l-26.971,26.969c-2.467,2.467-4.466,4.518-4.466,4.579 s-10.901,20.56-26.858,31.03c-15.959,10.474-11.471,18.951-11.471,27.43c0,7.143-8.849,8.975-14.917,1.025 c-2.116-2.771-4.194-8.148-4.61-11.611c-1.262-10.523,5.621-17.534,8.152-21.331c1.713-2.569,2.7-7.332,0.917-13.252H12.786 c-8.086,0-12.459-6.226-9.719-13.832l20.802-57.738c1.178-3.268,4.983-5.942,8.457-5.942h49.126c3.475,0,8.326-2.01,10.782-4.466 l2.26-2.26c2.467-2.466,6.467-2.466,8.934,0L133.893,45.886z M112.68,0l-8.27,8.269l36.118,36.119l8.271-8.269L112.68,0z"/> </g> </g>
</svg>